<svg xmlns="http://www.w3.org/2000/svg" viewBox="0 0 464 464"><path fill="#65BD6A" d="M184 280h48v16h-48zM248 280h32v16h-32zM184 312h16v16h-16zM216 312h64v16h-64z"/><path fill="#65BD6A" d="M368 384h-56.76l20.8-208h59.024l10-80H352V76.688l-28.536-28.536C326.28 43.392 328 37.92 328 32c0-17.648-14.352-32-32-32s-32 14.352-32 32 14.352 32 32 32c5.92 0 11.392-1.72 16.152-4.536L336 83.312V96H128V83.312l23.848-23.848C156.608 62.28 162.08 64 168 64c17.648 0 32-14.352 32-32S185.648 0 168 0s-32 14.352-32 32c0 5.92 1.72 11.392 4.536 16.152L112 76.688V96H62.936l10 80h59.024l20.8 208H96v32H64v48h336v-48h-32v-32zM296 48c-8.824 0-16-7.176-16-16s7.176-16 16-16 16 7.176 16 16-7.176 16-16 16zM168 16c8.824 0 16 7.176 16 16s-7.176 16-16 16-16-7.176-16-16 7.176-16 16-16zm-37.64 144H87.064l-6-48h301.872l-6 48H333.64l3.2-32H127.16l3.2 32zM80 448v-16h32v-32h42.36l2.664 26.664L159.16 448H80zm215.16-64l-6.4 64H175.24l-6.4-64-24-240h174.32l-24 240zM384 432v16h-79.16l2.128-21.336L309.64 400H352v32h32z"/><path fill="#65BD6A" d="M232 168c-26.472 0-48 21.528-48 48s21.528 48 48 48 48-21.528 48-48-21.528-48-48-48zm0 80c-17.648 0-32-14.352-32-32s14.352-32 32-32 32 14.352 32 32-14.352 32-32 32z"/></svg>