<?xml version="1.0" encoding="iso-8859-1"?>
<!-- Generator: Adobe Illustrator 19.0.0, SVG Export Plug-In . SVG Version: 6.00 Build 0)  -->
<svg version="1.1" id="Capa_1" xmlns="http://www.w3.org/2000/svg" xmlns:xlink="http://www.w3.org/1999/xlink" x="0px" y="0px"
	 viewBox="0 0 464 464" style="enable-background:new 0 0 464 464;" xml:space="preserve">
<g>
	<g>
		<rect x="184" y="280" width="48" height="16"/>
	</g>
</g>
<g>
	<g>
		<rect x="248" y="280" width="32" height="16"/>
	</g>
</g>
<g>
	<g>
		<rect x="184" y="312" width="16" height="16"/>
	</g>
</g>
<g>
	<g>
		<rect x="216" y="312" width="64" height="16"/>
	</g>
</g>
<g>
	<g>
		<path d="M368,384h-56.76l20.8-208h59.024l10-80H352V76.688l-28.536-28.536C326.28,43.392,328,37.92,328,32
			c0-17.648-14.352-32-32-32s-32,14.352-32,32s14.352,32,32,32c5.92,0,11.392-1.72,16.152-4.536L336,83.312V96H128V83.312
			l23.848-23.848C156.608,62.28,162.08,64,168,64c17.648,0,32-14.352,32-32S185.648,0,168,0s-32,14.352-32,32
			c0,5.92,1.72,11.392,4.536,16.152L112,76.688V96H62.936l10,80h59.024l20.8,208H96v32H64v48h96.76h16.08h110.32h16.08H400v-48h-32
			V384z M296,48c-8.824,0-16-7.176-16-16s7.176-16,16-16c8.824,0,16,7.176,16,16S304.824,48,296,48z M168,16c8.824,0,16,7.176,16,16
			s-7.176,16-16,16c-8.824,0-16-7.176-16-16S159.176,16,168,16z M130.36,160H87.064l-6-48h301.872l-6,48H333.64l3.2-32H127.16
			L130.36,160z M80,448v-16h32v-32h42.36l2.664,26.664L159.16,448H80z M295.16,384l-6.4,64H175.24l-6.4-64l-24-240h174.32
			L295.16,384z M384,432v16h-79.16l2.128-21.336L309.64,400H352v32H384z"/>
	</g>
</g>
<g>
	<g>
		<path d="M232,168c-26.472,0-48,21.528-48,48s21.528,48,48,48s48-21.528,48-48S258.472,168,232,168z M232,248
			c-17.648,0-32-14.352-32-32s14.352-32,32-32s32,14.352,32,32S249.648,248,232,248z"/>
	</g>
</g>
<g>
</g>
<g>
</g>
<g>
</g>
<g>
</g>
<g>
</g>
<g>
</g>
<g>
</g>
<g>
</g>
<g>
</g>
<g>
</g>
<g>
</g>
<g>
</g>
<g>
</g>
<g>
</g>
<g>
</g>
</svg>
