<svg xmlns="http://www.w3.org/2000/svg" viewBox="0 0 461 461"><path  fill="#65BD6A" d="M218.747 220.134a7.5 7.5 0 0 0-15 0c0 20.194 14.584 37.035 33.77 40.574v8.842a7.5 7.5 0 0 0 15 0v-8.842c19.186-3.539 33.77-20.38 33.77-40.574s-14.583-37.035-33.77-40.574v-52.138c10.841 3.236 18.77 13.294 18.77 25.173a7.5 7.5 0 0 0 15 0c0-20.194-14.583-37.036-33.77-40.574v-8.842a7.5 7.5 0 0 0-15 0v8.842c-19.186 3.539-33.77 20.38-33.77 40.574s14.584 37.036 33.77 40.574v52.138c-10.842-3.236-18.77-13.294-18.77-25.173zm33.77-25.172c10.841 3.236 18.77 13.293 18.77 25.173 0 11.879-7.928 21.937-18.77 25.173v-50.346zm-33.77-42.367c0-11.879 7.928-21.936 18.77-25.173v50.346c-10.842-3.236-18.77-13.294-18.77-25.173zM337.333 401.609c2.083-2.144 2.795-5.387 1.62-8.17a7.867 7.867 0 0 0-1.62-2.44c-4.657-4.524-12.828-1.315-12.81 5.31.018 6.598 8.127 9.849 12.81 5.3z"/><path  fill="#65BD6A" d="M371.5 0H118.533C98.389 0 82 16.389 82 36.533V396.31c0 9.748 3.797 18.921 10.702 25.838 6.908 6.895 16.081 10.692 25.829 10.692H132.5v20.66a7.499 7.499 0 0 0 12 6l19.5-14.625 19.5 14.625a7.493 7.493 0 0 0 7.854.708 7.5 7.5 0 0 0 4.146-6.708v-20.66h176a7.5 7.5 0 0 0 7.5-7.5V7.5a7.5 7.5 0 0 0-7.5-7.5zM97 36.533c0-9.233 5.853-17.104 14.033-20.158v344.173A36.361 36.361 0 0 0 97 366.817V36.533zM180.499 438.5l-12-9a7.5 7.5 0 0 0-9 0l-12 9v-34.695h33V438.5zM364 388.81h-8.27a7.5 7.5 0 0 0 0 15H364v14.03H195.499v-14.035H307.53a7.5 7.5 0 0 0 0-15h-189a7.5 7.5 0 0 0 0 15h13.969v14.035H118.53a21.418 21.418 0 0 1-15.222-6.298C99.24 407.466 97 402.057 97 396.31c0-11.877 9.658-21.54 21.53-21.54H364v14.04zm0-29.04H126.033V15H364v344.77z"/></svg>