<?xml version="1.0" encoding="iso-8859-1"?>
<!-- Generator: Adobe Illustrator 19.0.0, SVG Export Plug-In . SVG Version: 6.00 Build 0)  -->
<svg version="1.1" id="Layer_1" xmlns="http://www.w3.org/2000/svg" xmlns:xlink="http://www.w3.org/1999/xlink" x="0px" y="0px"
	 viewBox="0 0 461 461" style="enable-background:new 0 0 461 461;" xml:space="preserve">
<g>
	<g>
		<g>
			<path d="M218.747,220.134c0-4.142-3.358-7.5-7.5-7.5c-4.142,0-7.5,3.358-7.5,7.5c0,20.194,14.584,37.035,33.77,40.574v8.842
				c0,4.142,3.358,7.5,7.5,7.5c4.142,0,7.5-3.358,7.5-7.5v-8.842c19.186-3.539,33.77-20.38,33.77-40.574
				c0-20.194-14.583-37.035-33.77-40.574v-52.138c10.841,3.236,18.77,13.294,18.77,25.173c0,4.142,3.358,7.5,7.5,7.5
				c4.142,0,7.5-3.358,7.5-7.5c0-20.194-14.583-37.036-33.77-40.574v-8.842c0-4.142-3.358-7.5-7.5-7.5c-4.142,0-7.5,3.358-7.5,7.5
				v8.842c-19.186,3.539-33.77,20.38-33.77,40.574c0,20.194,14.584,37.036,33.77,40.574v52.138
				C226.675,242.071,218.747,232.013,218.747,220.134z M252.517,194.962c10.841,3.236,18.77,13.293,18.77,25.173
				c0,11.879-7.928,21.937-18.77,25.173V194.962z M218.747,152.595c0-11.879,7.928-21.936,18.77-25.173v50.346
				C226.675,174.532,218.747,164.474,218.747,152.595z"/>
			<path d="M337.333,401.609c2.083-2.144,2.795-5.387,1.62-8.17c-0.385-0.913-0.929-1.729-1.62-2.44
				c-4.657-4.524-12.828-1.315-12.81,5.31C324.541,402.907,332.65,406.158,337.333,401.609z"/>
			<path d="M371.5,0H118.533C98.389,0,82,16.389,82,36.533v359.758c0,0.006,0,0.013,0,0.019c0,9.748,3.797,18.921,10.702,25.838
				c6.908,6.895,16.081,10.692,25.829,10.692H132.5v20.66c0,2.841,1.605,5.438,4.146,6.708c2.542,1.271,5.583,0.996,7.854-0.708
				l19.5-14.625l19.5,14.625c1.323,0.993,2.907,1.5,4.501,1.5c1.143,0,2.292-0.261,3.353-0.792c2.541-1.271,4.146-3.867,4.146-6.708
				v-20.66h176c4.142,0,7.5-3.358,7.5-7.5V7.5C379,3.358,375.642,0,371.5,0z M97,36.533c0-9.233,5.853-17.104,14.033-20.158v344.173
				c-5.16,1.081-9.92,3.257-14.033,6.269V36.533z M180.499,438.5l-12-9c-2.667-2-6.333-2-9,0l-12,9v-34.695h33V438.5z M364,388.81
				h-8.27c-4.142,0-7.5,3.358-7.5,7.5c0,4.142,3.358,7.5,7.5,7.5H364v14.03H195.499v-14.035H307.53c4.142,0,7.5-3.358,7.5-7.5
				c0-4.142-3.358-7.5-7.5-7.5h-189c-4.142,0-7.5,3.358-7.5,7.5c0,4.142,3.358,7.5,7.5,7.5h13.969v14.035H118.53
				c-5.747,0-11.156-2.24-15.222-6.298C99.24,407.466,97,402.057,97,396.31c0-11.877,9.658-21.54,21.53-21.54H364V388.81z
				 M364,359.77H126.033V15H364V359.77z"/>
		</g>
	</g>
</g>
<g>
</g>
<g>
</g>
<g>
</g>
<g>
</g>
<g>
</g>
<g>
</g>
<g>
</g>
<g>
</g>
<g>
</g>
<g>
</g>
<g>
</g>
<g>
</g>
<g>
</g>
<g>
</g>
<g>
</g>
</svg>
