<svg xmlns="http://www.w3.org/2000/svg" viewBox="0 0 60 60"><path fill="#65BD6A" d="M47 4H35l1.8-2.4A.998.998 0 1 0 35.201.401L32.5 4h-4.882L25.894.553a1 1 0 0 0-1.789.895L25.382 4H13c-1.654 0-3 1.346-3 3v50c0 1.654 1.346 3 3 3h34c1.654 0 3-1.346 3-3V7c0-1.654-1.346-3-3-3zM13 6h13.382l1 2A3.974 3.974 0 0 0 26 11c0 2.206 1.794 4 4 4s4-1.794 4-4-1.794-4-4-4c-.287 0-.566.033-.836.091L28.618 6H47a1 1 0 0 1 1 1v33h-8.148a4.251 4.251 0 0 0-2.21-2.752L34 35.388v-.387c1.628-.889 2.773-2.353 3.412-4.364A2.976 2.976 0 0 0 39 28v-1c0-.926-.431-1.785-1.151-2.349-.624-3.78-3.262-5.696-7.849-5.696-.217 0-.429.008-.636.024-.863.067-2.129-.003-3.224-.74-.409-.276-.718-.544-.915-.793a1.19 1.19 0 0 0-1.402-.373 1.187 1.187 0 0 0-.734 1.247c.042.374.105.809.2 1.286.193.975.193.975-.078 1.558-.102.221-.228.49-.376.853a11.167 11.167 0 0 0-.701 2.647A2.983 2.983 0 0 0 21 27v1c0 1.122.619 2.123 1.588 2.637.639 2.012 1.784 3.476 3.412 4.364v.376l-3.769 1.858A4.27 4.27 0 0 0 20.124 40H12V7a1 1 0 0 1 1-1zm15.332 3.901l.773 1.546a1 1 0 0 0 1.789-.894l-.77-1.54A1.996 1.996 0 0 1 32 11c0 1.103-.897 2-2 2s-2-.897-2-2c0-.406.123-.783.332-1.099zM27.01 37.109c.602-.294.99-.917.99-1.588v-1.803l-.604-.26c-1.517-.654-2.503-1.901-3.015-3.814l-.143-.533-.526-.164A1.007 1.007 0 0 1 23 28v-1c0-.362.207-.698.541-.876l.469-.25.055-.529a9.39 9.39 0 0 1 .622-2.57c.133-.325.246-.568.338-.767.339-.728.462-1.104.377-1.875 1.176.672 2.589.956 4.122.841a5.71 5.71 0 0 1 .477-.019c3.744 0 5.572 1.356 5.929 4.398l.062.522.465.246c.334.178.543.515.543.879v1c0 .428-.293.817-.712.947l-.526.164-.143.533c-.512 1.913-1.498 3.16-3.015 3.814l-.604.261v1.811c0 .669.37 1.272.964 1.575l3.775 1.929c.431.216.772.557.99.967H22.225c.199-.419.522-.77.927-.989l3.858-1.903zM47 58H13a1 1 0 0 1-1-1V42h36v15a1 1 0 0 1-1 1z"/><path  fill="#65BD6A" d="M39 49H21a1 1 0 1 0 0 2h18a1 1 0 1 0 0-2zM25 47h10a1 1 0 1 0 0-2H25a1 1 0 1 0 0 2zM22 53h-1a1 1 0 1 0 0 2h1a1 1 0 1 0 0-2zM28 53h-2a1 1 0 1 0 0 2h2a1 1 0 1 0 0-2zM33 53h-1a1 1 0 1 0 0 2h1a1 1 0 1 0 0-2zM39 53h-2a1 1 0 1 0 0 2h2a1 1 0 1 0 0-2z"/></svg>