<svg xmlns="http://www.w3.org/2000/svg" xmlns:xlink="http://www.w3.org/1999/xlink" width="140" height="54" viewBox="0 0 140 54">
    <defs>
        <path id="a" d="M.053.773h85.76V54H.053z"/>
        <path id="c" d="M.053.773h85.76V54H.053z"/>
        <path id="e" d="M.053.773h85.76V54H.053z"/>
    </defs>
    <g fill="none" fill-rule="evenodd">
        <g>
            <mask id="b" fill="#fff">
                <use xlink:href="#a"/>
            </mask>
            <path fill="#FFF" fill-rule="nonzero" d="M38.992 21.085c1.31-.697 2.149-1.156 2.149-1.156L18.724 4.639l.035.026L13.053.773c1.707 1.163 2.225 3.273 2.17 8.176-.013 1.12-.808 11.75-.897 12.735-.296 3.293-.218 5.266 1.345 6.332.311.225 1.602 1.181 3.778.887 3.629-.596 10.775-3.196 19.543-7.818" mask="url(#b)"/>
        </g>
        <g>
            <mask id="d" fill="#fff">
                <use xlink:href="#c"/>
            </mask>
            <path fill="#FFF" fill-rule="nonzero" d="M52.308 18.936C27.995 33.32 16.971 33.943 15.058 32.64c0 0 24.35 16.627 24.366 16.607 5.375 3.833 10.58 5.467 15.924 4.464 6.882-1.294 17.395-4.612 30.465-11.93L52.308 18.935" mask="url(#d)"/>
        </g>
        <g>
            <mask id="f" fill="#fff">
                <use xlink:href="#e"/>
            </mask>
            <path fill="#FFF" fill-rule="nonzero" d="M11.064 16.126c.141-1.54.467-3.782.66-6.875.14-2.338.173-4.06.021-5.267-.221-1.807-.877-3.064-3.643-1.77C6.475 2.96 3.904 4.68 0 8.516l11.064 7.611" mask="url(#f)"/>
        </g>
        <path fill="#FFF" fill-rule="nonzero" d="M43.118 4.242l-.546-1.652-.562 1.652-.402 1.16h1.912l-.402-1.16zm1.976 5.42l-.916-2.639h-3.18l-.9 2.64h-1.944l3.583-9.36h1.687l3.614 9.36h-1.944zM55.118 9.662l-3.695-4.927-.9-1.445.08 1.731v4.64h-1.798V.303h1.477l3.663 4.894.996 1.51-.096-1.938V.302h1.799v9.36h-1.526M65.237 3.496c0-1.176-.417-1.542-1.766-1.542h-2.507v6.071h2.49c1.286 0 1.783-.43 1.783-1.684V3.496zm-1.766 6.166h-4.257V.302h4.24c2.33 0 3.536 1.144 3.536 3.194v2.845c0 2.255-1.415 3.32-3.519 3.32zM74.844 3.099c0-.89-.273-1.145-1.285-1.145h-2.492V4.56h2.395c1.141 0 1.382-.223 1.382-1.096v-.365zm.08 6.563l-1.286-3.48h-2.57v3.48h-1.75V.302h4.224c1.944 0 3.053 1.001 3.053 2.653v.383c0 1.239-.417 2.113-1.317 2.462l1.461 3.862h-1.815zM78.988 9.662V.302h6.762v1.652H80.74v2.099h4.289v1.636h-4.29v2.336h5.012v1.637h-6.762M96.514 9.662h-1.687l-1.655-5.69-1.654 5.69H89.83L87.598.302h2.056l1.028 4.894.113 1.415.304-1.67L92.465.303h1.366l1.397 4.656.322 1.667.112-1.413 1.045-4.91h2.056l-2.25 9.36M75.663 17.453c0-1.175-.417-1.542-1.768-1.542H71.39v6.071h2.49c1.285 0 1.783-.429 1.783-1.684v-2.845zm-1.768 6.166h-4.257v-9.36h4.242c2.33 0 3.535 1.143 3.535 3.194v2.845c0 2.257-1.414 3.32-3.52 3.32zM83.904 18.2l-.548-1.653-.56 1.653-.402 1.16h1.912l-.402-1.16zm1.976 5.419l-.916-2.637h-3.182l-.898 2.637H78.94l3.582-9.36h1.687l3.615 9.36H85.88zM92.674 23.619h-1.752l-3.342-9.36h2.041l1.67 5.022.515 1.7.514-1.7 1.64-5.022h2.039l-3.325 9.36M97.846 23.618h1.926v-9.36h-1.926zM108.368 17.453c0-1.175-.418-1.542-1.768-1.542h-2.506v6.071h2.49c1.285 0 1.784-.429 1.784-1.684v-2.845zM106.6 23.62h-4.257v-9.36h4.241c2.329 0 3.534 1.143 3.534 3.194v2.845c0 2.257-1.413 3.32-3.518 3.32zM115.676 23.746c-1.06 0-2.249-.175-3.261-.476v-1.701c1.044.318 2.153.556 3.245.556 1.59 0 1.927-.334 1.927-1.24 0-1.874-5.381-.366-5.381-4.036 0-1.652 1.221-2.701 3.534-2.701.98 0 2.009.143 2.94.429v1.684c-.851-.254-2.04-.476-2.925-.476-1.46 0-1.799.302-1.799 1.064 0 1.97 5.383.27 5.383 4.037 0 1.843-1.077 2.86-3.663 2.86M127.564 17.373c0-1.017-.563-1.605-1.623-1.605h-1.27c-1.075 0-1.638.588-1.638 1.605v3.131c0 1.032.563 1.606 1.622 1.606h1.27c1.076 0 1.639-.574 1.639-1.606v-3.13zm-1.607 6.357h-1.302c-1.975 0-3.39-1.288-3.39-3.226v-3.13c0-1.939 1.415-3.227 3.374-3.227h1.302c1.975 0 3.39 1.288 3.39 3.226v3.131c0 1.938-1.415 3.226-3.374 3.226zM137.973 23.619l-3.695-4.926-.9-1.446.08 1.731v4.64h-1.8V14.26h1.48l3.662 4.894.996 1.509-.097-1.937v-4.466h1.8v9.36h-1.526M93.75 29.821h-.963c-.24 0-.338.08-.338.318 0 .43.45.794.707 1.097l.82-.716c.096-.079.096-.254.096-.381 0-.239-.096-.318-.321-.318zm-.77 3.623c-.417.32-1.494.954-1.494 1.542 0 .588.466 1 1.043 1h.965c.578 0 .803-.254 1.188-.587l-1.703-1.955zM96.9 35.4l1.815 2.177H96.53l-.835-.97c-.177.176-.337.319-.483.446-.16.143-.304.238-.448.333-.323.159-.676.24-1.254.24h-.964c-1.607 0-2.827-1.018-2.827-2.64 0-1.382 1.124-2.065 2.088-2.796-.578-.62-1.108-1.144-1.108-2.05 0-1.16.931-1.97 2.072-1.97h.964c1.156 0 2.088.81 2.088 1.97 0 .604-.176 1-.465 1.335a3.357 3.357 0 0 1-.482.46c-.177.144-.37.287-.563.462l1.542 1.779.708-.89h2.168L96.899 35.4zM106.89 37.655c-2.601 0-4.063-1.461-4.063-3.432v-2.876c0-1.907 1.366-3.21 4.048-3.21.995 0 1.991.127 2.94.461v1.716c-.9-.302-2.025-.493-2.925-.493-1.606 0-2.296.62-2.296 1.573v2.798c0 1.175.771 1.796 2.28 1.796.916 0 2.042-.208 2.94-.51v1.717c-.948.333-1.944.46-2.924.46M117.958 31.331c0-1.017-.56-1.605-1.622-1.605h-1.268c-1.077 0-1.639.588-1.639 1.605v3.13c0 1.034.562 1.605 1.623 1.605h1.269c1.076 0 1.637-.571 1.637-1.605v-3.13zm-1.605 6.356h-1.301c-1.978 0-3.39-1.287-3.39-3.226v-3.13c0-1.94 1.412-3.226 3.373-3.226h1.301c1.976 0 3.39 1.287 3.39 3.226v3.13c0 1.94-1.414 3.226-3.373 3.226z"/>
    </g>
</svg>
